<svg width="20" height="20" viewBox="0 0 20 20" fill="none" xmlns="http://www.w3.org/2000/svg">
<path d="M16.2188 2.54883H17.3907V3.7207H16.2188V2.54883Z" fill="#0061DF"/>
<path d="M18.5408 15.4391C17.8592 14.9852 17.0415 14.824 16.2386 14.9851L13.0805 15.6482C13.2659 14.7471 12.7955 13.8359 11.9321 13.4975L8.55254 12.1599C7.20613 11.6271 5.71113 11.5946 4.34094 12.0692L0 13.5905V19.393L4.96934 17.7257L11.017 19.9996L20 18.1475L19.8477 17.3881C19.6866 16.5852 19.2225 15.893 18.5408 15.4391V15.4391ZM11.1124 18.7814L4.99168 16.4801L1.17379 17.7611V14.423L4.72711 13.1777C5.83004 12.7957 7.0352 12.8218 8.12055 13.2514L11.502 14.5898C11.8529 14.7272 12.0321 15.143 11.9017 15.5167C11.8336 15.712 11.6956 15.8657 11.5134 15.9494C11.3438 16.0274 11.1563 16.0334 10.9855 15.9665L6.89266 14.3627L6.46441 15.4556L10.5573 17.0594C10.8827 17.1869 11.2288 17.2189 11.5643 17.1562L11.5663 17.1656L16.4721 16.1355C16.9666 16.0371 17.4704 16.1366 17.8904 16.4163C18.1999 16.6224 18.4367 16.908 18.5798 17.2419L11.1124 18.7814Z" fill="#0061DF"/>
<path d="M9.97236 10.9817C10.1656 11.038 10.3628 11.0655 10.5584 11.0654C11.106 11.0654 11.6409 10.8504 12.0393 10.4519L15.044 7.44719L16.0781 8.48129L19.1678 5.39164C19.7042 4.85516 19.9997 4.14184 19.9997 3.38309C19.9997 2.62434 19.7042 1.91102 19.1677 1.37453L18.6251 0.831953C18.0887 0.295469 17.3753 0 16.6166 0C15.8578 0 15.1445 0.295469 14.608 0.831953L11.5184 3.9216L12.5525 4.95566L7.3042 10.2039L9.97236 10.9817ZM13.1757 3.9216L15.4367 1.66059C15.7518 1.34543 16.1708 1.17188 16.6166 1.17188C17.0623 1.17188 17.4814 1.34543 17.7965 1.66059L18.3391 2.20316C18.6543 2.51832 18.8278 2.93738 18.8278 3.38309C18.8278 3.82879 18.6543 4.24785 18.3391 4.56301L16.0781 6.82398L13.1757 3.9216ZM14.2154 6.61859L11.2106 9.62328C10.9725 9.86145 10.6237 9.9509 10.3003 9.8566L9.5326 9.63285L13.3811 5.78434L14.2154 6.61859Z" fill="#0061DF"/>
</svg>
